<svg xmlns="http://www.w3.org/2000/svg" 
     xmlns:xlink="http://www.w3.org/1999/xlink"
     width="32" height="32"
     viewBox="0 0 100 100"
     preserveAspectRatio="xMidYMid meet"
     aria-hidden="true" 
     role="img">
  <defs>
    <linearGradient id="backgroundGradient" x1="0%" y1="0%" x2="100%" y2="100%">
      <stop offset="0%" stop-color="#F5E6D3" stop-opacity="0.9"/>
      <stop offset="100%" stop-color="#F5E6D3" stop-opacity="0.7"/>
    </linearGradient>
    <linearGradient id="accentGradient" x1="0%" y1="0%" x2="100%" y2="100%">
      <stop offset="0%" stop-color="#DAA520"/>
      <stop offset="100%" stop-color="#B8860B"/>
    </linearGradient>
  </defs>
  
  <!-- Background waves with gradient -->
  <g transform="translate(-15,-20) scale(1.2)">
    <path d="M23,48 Q38,28 55,48 Q72,68 87,48 
             M25,50 Q40,30 55,50 Q70,70 85,50 
             M27,52 Q42,32 55,52 Q68,72 83,52" 
          stroke="url(#backgroundGradient)"
          stroke-width="8" 
          stroke-linecap="round"
          fill="none"/>
          
    <!-- Foreground lines -->
    <path d="M23,48 Q38,28 55,48 Q72,68 87,48 
             M25,50 Q40,30 55,50 Q70,70 85,50 
             M27,52 Q42,32 55,52 Q68,72 83,52" 
          stroke="#2b2b2b" 
          stroke-width="1" 
          stroke-linecap="round"
          fill="none"/>
          
    <!-- Center dot with gradient -->
    <circle cx="55" cy="50" r="13" 
            fill="url(#accentGradient)"/>
  </g>
</svg>